<svg width="264" height="302" viewBox="0 0 264 302" fill="none" xmlns="http://www.w3.org/2000/svg">
<path d="M16.3381 285H27.1278L37.0739 250.764H37.483L47.4545 285H58.2443L73.2273 232.636H61.1335L52.4659 269.097H52.0057L42.4688 232.636H32.1136L22.5511 269.02H22.1165L13.4489 232.636H1.35511L16.3381 285ZM92.6271 285.767C102.343 285.767 108.888 281.037 110.423 273.75L100.349 273.085C99.2493 276.077 96.4368 277.636 92.8061 277.636C87.3601 277.636 83.9084 274.031 83.9084 268.176V268.151H110.653V265.159C110.653 251.812 102.573 245.216 92.1925 245.216C80.6357 245.216 73.1442 253.423 73.1442 265.543C73.1442 277.994 80.5334 285.767 92.6271 285.767ZM83.9084 261.401C84.1385 256.926 87.5391 253.347 92.3715 253.347C97.1016 253.347 100.374 256.722 100.4 261.401H83.9084ZM128.653 232.636H117.761V285H128.653V232.636ZM148.27 232.636H137.378V285H148.27V232.636ZM174.893 285.767C184.609 285.767 191.154 281.037 192.688 273.75L182.614 273.085C181.515 276.077 178.702 277.636 175.072 277.636C169.626 277.636 166.174 274.031 166.174 268.176V268.151H192.918V265.159C192.918 251.812 184.839 245.216 174.458 245.216C162.901 245.216 155.41 253.423 155.41 265.543C155.41 277.994 162.799 285.767 174.893 285.767ZM166.174 261.401C166.404 256.926 169.805 253.347 174.637 253.347C179.367 253.347 182.64 256.722 182.665 261.401H166.174ZM220.915 245.727H213.526V236.318H202.634V245.727H197.265V253.909H202.634V274.364C202.583 282.06 207.825 285.869 215.725 285.537C218.538 285.435 220.532 284.872 221.631 284.514L219.918 276.409C219.381 276.511 218.231 276.767 217.208 276.767C215.035 276.767 213.526 275.949 213.526 272.932V253.909H220.915V245.727ZM260.124 256.926C259.153 249.69 253.323 245.216 243.403 245.216C233.354 245.216 226.732 249.869 226.758 257.438C226.732 263.318 230.44 267.128 238.11 268.662L244.911 270.017C248.337 270.707 249.897 271.96 249.948 273.929C249.897 276.256 247.366 277.918 243.556 277.918C239.67 277.918 237.087 276.256 236.423 273.06L225.71 273.622C226.732 281.139 233.124 285.767 243.531 285.767C253.707 285.767 260.994 280.577 261.019 272.83C260.994 267.153 257.286 263.753 249.667 262.193L242.559 260.761C238.903 259.969 237.548 258.716 237.573 256.824C237.548 254.472 240.207 252.938 243.582 252.938C247.366 252.938 249.616 255.009 250.153 257.54L260.124 256.926Z" fill="white"/>
<path d="M202.637 43.75H72.3438C69.3223 43.75 66.875 41.3027 66.875 38.2812C66.875 35.2598 69.3223 32.8125 72.3438 32.8125H203.594C206.615 32.8125 209.062 30.3652 209.062 27.3438C209.062 18.2827 201.717 10.9375 192.656 10.9375H66.875C54.7925 10.9375 45 20.73 45 32.8125V142.188C45 154.27 54.7925 164.062 66.875 164.062H202.637C212.214 164.062 220 156.704 220 147.656V60.1562C220 51.1089 212.214 43.75 202.637 43.75ZM187.188 114.844C181.148 114.844 176.25 109.946 176.25 103.906C176.25 97.8667 181.148 92.9688 187.188 92.9688C193.227 92.9688 198.125 97.8667 198.125 103.906C198.125 109.946 193.227 114.844 187.188 114.844Z" fill="#68D391"/>
</svg>
