<svg width="493" height="175" viewBox="0 0 493 175" fill="none" xmlns="http://www.w3.org/2000/svg">
<path d="M245.338 114H256.128L266.074 79.7642H266.483L276.455 114H287.244L302.227 61.6364H290.134L281.466 98.0966H281.006L271.469 61.6364H261.114L251.551 98.0199H251.116L242.449 61.6364H230.355L245.338 114ZM321.627 114.767C331.343 114.767 337.888 110.037 339.423 102.75L329.349 102.085C328.249 105.077 325.437 106.636 321.806 106.636C316.36 106.636 312.908 103.031 312.908 97.1761V97.1506H339.653V94.1591C339.653 80.8125 331.573 74.2159 321.192 74.2159C309.636 74.2159 302.144 82.4233 302.144 94.5426C302.144 106.994 309.533 114.767 321.627 114.767ZM312.908 90.4006C313.138 85.9261 316.539 82.3466 321.371 82.3466C326.102 82.3466 329.374 85.7216 329.4 90.4006H312.908ZM357.653 61.6364H346.761V114H357.653V61.6364ZM377.27 61.6364H366.378V114H377.27V61.6364ZM403.893 114.767C413.609 114.767 420.154 110.037 421.688 102.75L411.614 102.085C410.515 105.077 407.702 106.636 404.072 106.636C398.626 106.636 395.174 103.031 395.174 97.1761V97.1506H421.918V94.1591C421.918 80.8125 413.839 74.2159 403.458 74.2159C391.901 74.2159 384.41 82.4233 384.41 94.5426C384.41 106.994 391.799 114.767 403.893 114.767ZM395.174 90.4006C395.404 85.9261 398.805 82.3466 403.637 82.3466C408.367 82.3466 411.64 85.7216 411.665 90.4006H395.174ZM449.915 74.7273H442.526V65.3182H431.634V74.7273H426.265V82.9091H431.634V103.364C431.583 111.06 436.825 114.869 444.725 114.537C447.538 114.435 449.532 113.872 450.631 113.514L448.918 105.409C448.381 105.511 447.231 105.767 446.208 105.767C444.035 105.767 442.526 104.949 442.526 101.932V82.9091H449.915V74.7273ZM489.124 85.9261C488.153 78.6903 482.323 74.2159 472.403 74.2159C462.354 74.2159 455.732 78.8693 455.758 86.4375C455.732 92.3182 459.44 96.1278 467.11 97.6619L473.911 99.017C477.337 99.7074 478.897 100.96 478.948 102.929C478.897 105.256 476.366 106.918 472.556 106.918C468.67 106.918 466.087 105.256 465.423 102.06L454.71 102.622C455.732 110.139 462.124 114.767 472.531 114.767C482.707 114.767 489.994 109.577 490.019 101.83C489.994 96.1534 486.286 92.7528 478.667 91.1932L471.559 89.7614C467.903 88.9688 466.548 87.7159 466.573 85.8239C466.548 83.4716 469.207 81.9375 472.582 81.9375C476.366 81.9375 478.616 84.0085 479.153 86.5398L489.124 85.9261Z" fill="white"/>
<path d="M157.637 43.75H27.3438C24.3223 43.75 21.875 41.3027 21.875 38.2812C21.875 35.2598 24.3223 32.8125 27.3438 32.8125H158.594C161.615 32.8125 164.062 30.3652 164.062 27.3438C164.062 18.2827 156.717 10.9375 147.656 10.9375H21.875C9.79248 10.9375 0 20.73 0 32.8125V142.188C0 154.27 9.79248 164.062 21.875 164.062H157.637C167.214 164.062 175 156.704 175 147.656V60.1562C175 51.1089 167.214 43.75 157.637 43.75ZM142.188 114.844C136.148 114.844 131.25 109.946 131.25 103.906C131.25 97.8667 136.148 92.9688 142.188 92.9688C148.227 92.9688 153.125 97.8667 153.125 103.906C153.125 109.946 148.227 114.844 142.188 114.844Z" fill="#68D391"/>
</svg>
